<?xml version="1.0" encoding="UTF-8"?>
<!DOCTYPE svg PUBLIC "-//W3C//DTD SVG 1.1//EN" "http://www.w3.org/Graphics/SVG/1.1/DTD/svg11.dtd">
<!-- Creator: CorelDRAW X6 -->
<svg xmlns="http://www.w3.org/2000/svg" xml:space="preserve" width="7.11111in" height="7.11111in" version="1.1" style="shape-rendering:geometricPrecision; text-rendering:geometricPrecision; image-rendering:optimizeQuality; fill-rule:evenodd; clip-rule:evenodd"
viewBox="0 0 7111 7111"
 xmlns:xlink="http://www.w3.org/1999/xlink">
 <defs>
  <style type="text/css">
   <![CDATA[
    .fil3 {fill:#00E8FF;fill-rule:nonzero}
    .fil1 {fill:#415ED6;fill-rule:nonzero}
    .fil0 {fill:#8A8A5E;fill-rule:nonzero}
    .fil2 {fill:#E6E6E6;fill-rule:nonzero}
   ]]>
  </style>
 </defs>
 <g id="__x0023_Layer_x0020_1">
  <metadata id="CorelCorpID_0Corel-Layer"/>
  <g id="_384636800">
   <g>
    <g>
     <g>
      <path class="fil0" d="M3139 7328l46 -131 54 0 -34 131 87 117 -82 0 -61 -140 -7 65 0 75 -15 0 0 -305 15 0c0,0 -15,139 -2,188z"/>
     </g>
     <path class="fil0" d="M2717 7191l-41 34c-27,4 -79,36 -25,36 -90,0 -86,-7 -86,-32 0,78 66,66 26,41l71 59c-9,-1 -2,-61 -16,9 21,-28 34,-11 34,14 0,47 8,44 -63,44 -54,0 -37,7 -118,7l19 -6c32,-45 51,-48 66,-48 30,0 94,45 94,48 0,-90 -24,-45 -60,-54l-53 -37c45,-16 -46,12 -8,-17 -44,4 -16,20 -16,24 0,-80 -9,-65 106,-65 -8,0 28,-45 70,-57z"/>
     <path class="fil0" d="M2862 7361l-23 38c7,38 12,10 -67,10 17,0 -51,6 -51,-124 0,11 9,-7 26,-57 8,28 36,12 41,12 -7,0 65,-8 59,-40 44,12 9,84 9,102 0,49 0,28 0,29l-97 0 0 -21c0,45 -2,84 69,84 -19,0 -32,16 34,-33zm-90 -105l0 0 53 0 0 65c0,-16 21,-91 -7,-30 -4,-61 -19,-54 7,-54 -27,0 -53,63 -53,76l0 -57z"/>
     <path class="fil0" d="M3039 7361l8 38c-8,38 4,10 -85,10 -56,0 -41,6 -41,-124 0,11 9,-7 26,-57 8,28 30,12 29,12 17,0 84,-8 56,-40 54,12 29,84 29,102 0,49 0,28 0,29l-107 0 0 -21c0,45 -4,84 68,84 0,0 -32,16 18,-33zm-72 -105l0 0 51 0 0 65c0,-16 8,-91 -1,-30 -17,-61 -13,-54 -29,-54 -8,0 -22,63 -22,76l0 -57z"/>
    </g>
   </g>
   <g>
    <path class="fil1" d="M3325 7134l-3 0 0 267c0,-15 32,-30 9,24 -17,-27 46,-44 31,-44 39,0 -35,18 36,-27 -12,31 -6,-5 2,54l-46 22c60,-14 38,-10 -6,18 5,-54 13,-4 12,-4 -19,0 -3,-59 -17,-29 -11,-23 -17,8 -17,-5l0 -276z"/>
    <path class="fil1" d="M3464 7377c10,0 -34,35 -64,48 63,-1 43,-66 36,-42 -9,18 -19,-54 -43,-53 -26,-4 -1,24 -1,-1 0,-15 -32,-64 -11,-63 18,-4 31,-22 6,-50 38,18 58,37 80,-33 -55,6 -9,57 -3,57 4,0 56,-51 73,-57 28,70 36,51 39,33 9,29 -24,46 -42,50 18,-1 71,48 71,63 0,25 -49,-3 -77,1 60,-1 39,71 35,53 -9,-24 -16,41 -50,42 -6,-13 -59,-48 -49,-48zm-51 -63l0 0c0,-29 -4,-9 -16,46 -12,-28 0,-8 29,-5 32,-5 8,60 15,37 9,-23 70,-32 23,-32 36,0 20,16 29,44 3,-55 -17,-36 36,-31 -3,5 1,-26 -14,-65 -9,27 -13,13 -13,43 0,-78 4,-93 13,-51 15,-46 11,-63 14,-53 -53,2 -33,18 -36,-34 -9,27 7,41 -29,41 46,0 -11,-14 -33,-41 -10,52 13,31 -15,22 -19,67 -31,83 -20,46 12,14 16,51 16,33z"/>
    <path class="fil1" d="M3655 7426c28,0 -18,-34 5,-15 -54,19 -6,-47 -44,-24 -32,-9 16,-53 -20,-66 -36,-19 -13,-13 -13,7 0,-23 21,-75 25,-69 -36,0 2,-15 33,-44 -40,18 2,37 -26,-33 60,6 51,57 75,57 43,0 19,-35 18,-12 10,12 9,17 8,48l0 -30 81 0 0 185c0,27 -12,-35 -36,51 -20,14 -29,16 -38,15 -9,5 -26,4 -36,-2 29,5 38,5 -17,5 -17,0 -65,23 -83,-19 -13,-30 15,-26 2,-48l-2 0c56,-4 63,56 39,10 64,-8 82,30 44,30 50,0 40,-34 48,8 -1,-41 -2,-22 4,-31 52,10 36,-28 49,1 -9,-37 -13,-15 -13,-20l0 -79c18,67 10,16 -39,89 -50,-15 10,-14 -62,-14zm-5 -67l0 0c59,0 51,58 36,27 -9,-36 11,-30 65,26 -27,-32 -12,-39 -40,-92 65,18 23,51 46,0l0 -46c-31,-5 -22,-27 -50,10 60,-50 -17,-62 14,-22 -50,-50 8,-57 -2,-20 2,31 -5,12 -10,12 -53,0 -10,-28 -19,4 -50,26 -74,-7 -42,-28 -45,59 3,66 -15,40 -12,35 -30,8 -30,44 0,-1 -4,21 -13,-6 68,39 75,70 10,65 23,-5 55,-24 69,31 5,-27 -27,-44 -20,-44z"/>
    <path class="fil1" d="M3880 7377c10,0 -34,35 21,48 -21,-1 -42,-66 -51,-42 -3,18 -21,-54 -63,-53 -6,-4 22,24 22,-1 0,-15 -29,-64 -11,-63 9,-4 31,-22 35,-50 9,18 6,37 51,-33 27,6 4,57 -3,57 4,0 56,-51 73,-57 28,70 36,51 39,33 9,29 2,46 -42,50 18,-1 71,48 71,63 0,25 -49,-3 5,1 -22,-1 -43,71 -47,53 -9,-24 -16,41 -24,42 -32,-13 -3,-48 -75,-48zm-51 -63l0 0c0,-29 -4,-9 -13,46 -15,-28 -3,-8 29,-5 26,-5 3,60 12,37 9,-23 70,-32 23,-32 36,0 20,16 29,44 3,-55 65,-36 5,-31 45,5 31,-26 17,-65 -9,27 69,13 69,43 0,-78 -78,-93 -69,-51 15,-46 29,-63 -17,-53 60,2 -2,18 -5,-34 -9,27 7,41 -29,41 46,0 -11,-14 -30,-41 -13,52 10,31 -17,22 -16,67 -31,83 -17,46 9,14 13,51 13,33z"/>
   </g>
   <g>
    <path class="fil2" d="M4065 7398c0,27 -38,25 -47,25 -21,-15 -15,33 3,33 -12,0 -25,-48 -10,-33 0,0 -33,2 -33,-25 0,18 34,-58 33,16 -15,-36 -2,-60 10,-60 -18,0 -24,24 -3,60 9,-74 47,2 47,-16z"/>
    <path class="fil2" d="M4103 7235l-5 0 0 -22 20 0c-45,43 -24,10 -3,-3 6,1 52,-39 12,-39 85,0 48,91 108,57 15,48 10,24 10,92l0 57 -14 0 0 -62c-60,-35 -7,-102 -119,-102 -1,0 -7,70 -15,60 -9,-24 21,34 21,25l0 78 -15 0 0 -142z"/>
    <path class="fil2" d="M4351 7390c18,0 -16,59 -34,-40 -86,50 -20,11 -20,-36 0,-10 -48,-53 -38,-62 11,-9 53,-81 110,-81 33,0 65,80 40,61 58,-4 -3,81 -3,108l53 -2 -170 0c-12,3 20,-7 10,25 19,46 89,53 53,53 30,0 78,-63 97,-77l-2 52c5,-23 -2,-19 -42,-18 -37,16 -24,17 -55,17zm-51 -132l0 0 95 0c1,12 28,24 27,-30 -17,13 -83,-14 -111,-14 57,0 3,68 17,12 -43,40 -55,83 -28,33z"/>
    <path class="fil2" d="M4556 7418c-14,0 -7,30 -82,21 -7,-91 12,-56 42,-47l0 -150 -101 0 0 -6 101 0 0 -107 15 0 0 107 7 0 0 6 -7 0 0 101c0,49 -12,40 4,55 -5,1 -23,1 -25,1 3,0 10,-33 22,-32 26,16 63,58 60,44l-61 25c49,-17 37,-19 25,-19z"/>
   </g>
  </g>
  <g id="_384638336">
   <path class="fil3" d="M3574 1054c-1391,0 -2536,1166 -2536,2501 0,1335 1145,2451 2536,2451 1391,0 2498,-1115 2498,-2451 0,-1335 -1107,-2501 -2498,-2501zm-393 4927l0 0 0 -436c0,-189 -85,-333 -264,-453 -643,-246 -1043,-811 -1043,-1536 0,-933 746,-1700 1700,-1700 911,0 1700,767 1700,1700 0,1080 -859,2093 -2093,2425z"/>
  </g>
 </g>
</svg>
